PathFileType	4	(X/Y/Z)	../Python\running\Running04\task.trc
DataRate	CameraRate	NumFrames	NumMarkers	Units	OrigDataRate	OrigDataStartFrame	OrigNumFrames
200.000000	200.000000	4	30	mm	200.000000	197	226
Frame#	Time	C7			RBAK			CLAV			STRN			RASI			LASI			PE01			RTH2			RTH3			RHEE			RD5M			RTOE			LTH2			LTH3			LTB2			LTB3			LHEE			LTOE			LD5M			RTH1			LPSI			RTB2			PE03			RPSI			PE02			RTB1			RTB3			T10			LTH1			LTB1			
		X1	Y1	Z1	X2	Y2	Z2	X3	Y3	Z3	X4	Y4	Z4	X5	Y5	Z5	X6	Y6	Z6	X7	Y7	Z7	X8	Y8	Z8	X9	Y9	Z9	X10	Y10	Z10	X11	Y11	Z11	X12	Y12	Z12	X13	Y13	Z13	X14	Y14	Z14	X15	Y15	Z15	X16	Y16	Z16	X17	Y17	Z17	X18	Y18	Z18	X19	Y19	Z19	X20	Y20	Z20	X21	Y21	Z21	X22	Y22	Z22	X23	Y23	Z23	X24	Y24	Z24	X25	Y25	Z25	X26	Y26	Z26	X27	Y27	Z27	X28	Y28	Z28	X29	Y29	Z29	X30	Y30	Z30	

198	0.985	1715.851074218751	1325.90478515625	108.261817932129	1661.084594726563	1251.8154296875	218.5160064697267	1832.619628906251	1218.974853515625	124.310043334961	1866.607421875001	1026.709106445313	139.4959869384766	1808.825195312501	834.9724731445317	253.371795654297	1788.071411132813	831.8095092773442	25.74839019775392	1621.399902343751	940.753051757813	173.0600738525391	1905.671875000001	519.8836669921877	274.0392456054689	1902.020385742188	580.1900634765627	288.7488403320314	1620.151977539063	152.9550170898438	193.9865112304689	1738.867919921876	85.59568023681643	283.0049438476564	1774.506469726563	73.0944519042969	238.5621948242189	1656.659545898438	527.4016723632815	7.070953369140629	1731.104370117188	551.8533325195315	-4.193409919738771	1511.640014648438	226.8428192138673	38.33322143554689	1560.985229492188	229.6130981445314	43.36941146850587	1380.400756835938	102.0217819213868	99.71770477294928	1548.564453125001	33.41541290283205	117.2184600830079	1511.576171875	20.77151489257813	60.83619689941409	1852.280517578126	574.5948486328127	295.7219848632814	1605.312744140626	907.477172851563	129.6504821777344	1798.241699218751	317.0325622558595	272.4223022460939	1591.583862304688	885.9219360351567	144.7077178955079	1613.558959960938	904.015747070313	214.5636596679689	1594.549560546876	883.0775756835942	195.039031982422	1858.860717773438	327.0020446777345	261.7155761718751	1802.911743164063	270.0843811035157	256.9278869628907	1649.383056640626	1040.16650390625	151.2623596191407	1689.776123046876	578.2886962890627	-8.184784889221195	1560.048706054688	287.5942687988282	21.3125171661377	
199	0.99	1731.645751953126	1329.443603515625	108.6649169921876	1675.362670898438	1254.953247070313	216.8585968017579	1848.686401367188	1223.541870117188	126.3728942871094	1883.309448242188	1031.327514648438	140.9302520751954	1825.353393554688	839.4631958007817	253.4822692871095	1805.531127929688	834.4641723632817	25.82895660400392	1637.800170898438	944.9131469726567	170.7416381835938	1925.000000000001	526.3442382812502	272.3619995117189	1920.451293945313	586.591979980469	287.3786010742189	1654.631103515626	143.8844299316407	195.8859252929689	1776.929321289063	81.77065277099612	283.8811950683595	1812.695068359376	70.83692932128909	239.1116943359376	1665.505371093751	531.9243774414065	7.175940990448002	1740.623046875001	554.7662353515627	-3.948219537734987	1515.037841796875	232.3447113037111	38.73116683959962	1564.439941406251	234.7309112548829	42.98165512084962	1384.65283203125	108.7470703125001	99.6160507202149	1548.757446289063	33.02162933349611	117.0598907470704	1511.614868164063	21.13191223144532	60.95899963378909	1870.799926757813	580.0740966796877	294.6466369628907	1622.305664062501	910.630737304688	128.1319427490235	1824.740722656251	316.8406677246095	272.6624450683595	1608.491577148438	888.9818725585942	143.4977722167969	1629.993530273438	907.9522094726567	213.0222930908204	1611.238525390626	887.0639038085942	193.9538574218751	1884.843383789063	329.7078857421876	261.762908935547	1831.702758789063	269.9726867675782	257.5288391113282	1665.958740234376	1043.356689453125	149.0033111572266	1699.876831054688	582.039733886719	-7.922667026519779	1563.669433593751	292.9765625000001	21.68012809753419	
200	0.995	1747.459594726563	1333.044067382813	109.0843658447266	1689.738891601563	1258.14794921875	215.2202758789064	1864.732666015626	1228.206665039063	128.4214324951172	1900.055664062501	1036.037231445313	142.3731231689454	1841.989990234376	844.034790039063	253.5076599121095	1823.141235351563	837.3135375976567	25.87241935729982	nan	nan	nan	1943.827880859376	532.5130615234377	270.663055419922	1938.569091796876	592.7216796875002	285.9046936035157	1689.531250000001	135.246566772461	197.6525268554689	1815.128417968751	78.15988922119143	284.4721679687501	1850.901733398438	68.81164550781253	239.3104858398439	1674.960449218751	536.704772949219	7.270916461944584	1750.735595703126	557.9669189453127	-3.46112632751465	1518.873168945313	238.1884155273439	39.20979309082033	1568.315551757813	240.2650909423829	42.57555007934572	1389.759887695313	115.7219467163087	99.60055541992193	1548.940185546876	32.5718116760254	116.8635482788087	1511.794799804688	21.64439201354981	61.08330917358401	1888.992309570313	585.4470825195315	293.4715881347657	1639.441284179688	913.8652954101567	126.6166992187501	1851.142333984376	316.6264953613282	272.890106201172	1625.521972656251	892.1052856445317	142.3199310302735	1646.649047851563	911.9288940429692	211.5140228271486	1628.118774414063	891.0910034179692	192.8930206298829	1910.550537109376	332.3669433593751	261.7831115722657	1860.394409179688	269.9326477050782	258.0779418945314	1682.595703125001	1046.629760742188	146.682601928711	1710.506225585938	586.0457153320315	-7.594053745269779	1567.608764648438	298.8013610839845	22.1865348815918	
201	1	1763.296020507813	1336.677856445313	109.5206375122071	1704.219848632813	1261.369995117188	213.6101684570314	1880.755371093751	1232.93310546875	130.4481048583985	1916.835693359376	1040.807373046875	143.8230285644532	1858.726074218751	848.6505737304692	253.4376525878907	1840.875732421876	840.310913085938	25.87190818786623	nan	nan	nan	1962.145629882813	538.331237792969	268.9520874023439	1956.378662109376	598.5234375000002	284.3353271484376	1724.806762695313	127.1165161132813	199.2496185302736	1853.412475585938	74.75407409667972	284.7744140625001	1889.079711914063	66.99939727783206	239.168182373047	1684.971313476563	541.704284667969	7.405833721160892	1761.387939453126	561.3510742187502	-2.71399998664856	1523.205688476563	244.312957763672	39.77267456054689	1572.671264648438	246.1627349853517	42.16460037231447	1395.797973632813	122.8983383178712	99.68399810791021	1549.146362304688	32.08415603637697	116.6420364379883	1512.170654296875	22.34710502624512	61.23429489135745	1906.857788085938	590.6765747070315	292.196014404297	1656.712036132813	917.1611938476567	125.1063537597657	1877.446533203126	316.382537841797	273.1078186035157	1642.665893554688	895.2783813476567	141.1696014404297	1663.518066406251	915.9147949218755	210.0379180908204	1645.181030273438	895.1337890625005	191.8501434326172	1935.972167968751	334.9553222656251	261.7609863281251	1888.973388671876	269.9668273925782	258.561004638672	1699.287597656251	1049.961669921875	144.3125305175782	1721.644775390626	590.249206542969	-7.186391353607181	1571.924194335938	305.0126037597657	22.84468460083009	
